<?xml version="1.0" encoding="iso-8859-1"?>
<!-- Uploaded to: SVG Repo, www.svgrepo.com, Generator: SVG Repo Mixer Tools -->
<svg version="1.1" id="Layer_1" xmlns="http://www.w3.org/2000/svg" xmlns:xlink="http://www.w3.org/1999/xlink" 
	 viewBox="0 0 498.4 498.4" xml:space="preserve">
<path style="fill:#B8BDC1;" d="M465.6,481.6c0,9.6-8,16.8-16.8,16.8H50.4c-8.8,0-16.8-8-16.8-16.8V83.2c0-8.8,8-16.8,16.8-16.8H448
	c9.6,0,17.6,8,17.6,16.8V481.6z"/>
<path style="fill:#D9DEE2;" d="M465.6,473.6c0,9.6-8,16.8-16.8,16.8H50.4c-8.8,0-16.8-8-16.8-16.8V75.2c0-8.8,8-16.8,16.8-16.8H448
	c9.6,0,17.6,8,17.6,16.8V473.6z"/>
<path style="fill:#FFFFFF;" d="M465.6,457.6c0,9.6-8,16.8-16.8,16.8H50.4c-8.8,0-16.8-8-16.8-16.8V59.2c0-8.8,8-16.8,16.8-16.8H448
	c9.6,0,17.6,8,17.6,16.8V457.6z"/>
<path style="fill:#D9DEE2;" d="M32.8,60c0-9.6,7.2-17.6,16.8-17.6h400c9.6,0,16,8.8,16,18.4v400c0,9.6-8,14.4-16.8,14.4"/>
<path style="fill:#2A7A9E;" d="M243.2,320c0,54.4-21.6,92-67.2,92s-65.6-40.8-65.6-91.2c0-51.2,21.6-91.2,67.2-91.2
	C224.8,229.6,243.2,272,243.2,320z M152,321.6c0,40.8,9.6,60,25.6,60s24.8-20,24.8-60c0-39.2-8.8-60-24.8-60
	C162.4,260.8,152,280,152,321.6z"/>
<path style="fill:#0C5177;" d="M385.6,266.4h-72l-4,27.2c4-0.8,7.2-0.8,11.2-0.8c16.8,0,33.6,4,46.4,12.8c13.6,8.8,21.6,24,21.6,44
	c0,32.8-28,61.6-76,61.6c-21.6,0-39.2-4.8-48.8-9.6l7.2-31.2c8,4,24,8.8,40,8.8c16.8,0,35.2-8,35.2-27.2c0-18.4-14.4-29.6-49.6-29.6
	c-9.6,0-16.8,1.6-24,2.4l12-90.4h100.8V266.4z"/>
<path style="fill:#2A7A9E;" d="M449.6,42.4h-400c-9.6,0-16,8.8-16,18.4v101.6h432V60.8C465.6,51.2,459.2,42.4,449.6,42.4z"/>
<g>
	<path style="fill:#0C5177;" d="M178.4,229.6c-0.8,0-0.8,0-0.8,0v31.2c0,0,0,0,0.8,0c16.8,0,24.8,20.8,24.8,60c0,40-8,60-24,60
		c-0.8,0-0.8,0-0.8,0V412c0,0-0.8,0,0,0c44.8,0,67.2-37.6,67.2-92C244,272,225.6,229.6,178.4,229.6z"/>
	<rect x="33.6" y="66.4" style="fill:#0C5177;" width="432" height="96"/>
</g>
<circle style="fill:#F2A825;" cx="136.8" cy="111.2" r="34.4"/>
<path style="fill:#DB7D0E;" d="M112.8,87.2c13.6-13.6,35.2-13.6,48.8,0s13.6,35.2,0,48.8"/>
<path style="fill:#FFFFFF;" d="M153.6,110.4c0,8-8,15.2-16,15.2l0,0c-8,0-16-6.4-16-15.2V15.2c0-8,8-15.2,16-15.2l0,0
	c8,0,16,6.4,16,15.2V110.4z"/>
<path style="fill:#D9DEE2;" d="M137.6,0L137.6,0c8,0,16,6.4,16,15.2v95.2c0,8-7.2,15.2-15.2,15.2l0,0"/>
<circle style="fill:#F2A825;" cx="362.4" cy="111.2" r="34.4"/>
<path style="fill:#DB7D0E;" d="M337.6,87.2c13.6-13.6,35.2-13.6,48.8,0c13.6,13.6,13.6,35.2,0,48.8"/>
<path style="fill:#FFFFFF;" d="M377.6,110.4c0,8-8,15.2-16,15.2l0,0c-8,0-16-6.4-16-15.2V15.2c0-8,8-15.2,16-15.2l0,0
	c8,0,16,6.4,16,15.2V110.4z"/>
<path style="fill:#D9DEE2;" d="M362.4,0L362.4,0c8,0,15.2,6.4,15.2,15.2v95.2c0,8-7.2,15.2-15.2,15.2l0,0"/>
</svg>