<?xml version="1.0" encoding="iso-8859-1"?>
<!-- Uploaded to: SVG Repo, www.svgrepo.com, Generator: SVG Repo Mixer Tools -->
<svg fill="#000000" height="800px" width="800px" version="1.1" id="Layer_1" xmlns="http://www.w3.org/2000/svg" xmlns:xlink="http://www.w3.org/1999/xlink" 
	 viewBox="0 0 512.004 512.004" xml:space="preserve">
<g>
	<g>
		<path d="M438.059,257.965c-9.593-9.593-15.469-22.324-16.548-35.849l-1.207-15.153c-3.218-40.387-20.768-78.408-49.416-107.057
			L322.699,51.72c-3.253-3.253-8.528-3.253-11.78,0c-10.807,10.807-16.249,24.973-16.341,39.168l-82.001-82
			c-11.852-11.852-31.135-11.852-42.988,0c-3.494,3.494-5.95,7.637-7.384,12.044l-0.486-0.486
			c-11.851-11.852-31.135-11.852-42.988,0c-5.741,5.741-8.903,13.374-8.903,21.494c0,0.227,0.011,0.451,0.017,0.676
			c-0.36-0.012-0.721-0.027-1.083-0.027c-8.12,0-15.752,3.162-21.493,8.903s-8.903,13.374-8.903,21.493s3.162,15.752,8.903,21.495
			l5.168,5.168c-4.406,1.434-8.549,3.89-12.044,7.384c-11.851,11.852-11.851,31.136,0,42.988l12.422,12.422
			c-4.485,1.464-8.596,3.966-12.028,7.398c-5.741,5.741-8.903,13.375-8.903,21.495c0,8.12,3.162,15.752,8.903,21.494L204.37,336.413
			c12.493,12.494,29.05,20.385,46.622,22.22c2.059,0.215,4.098,0.549,6.114,0.973c-10.967,23.129-21.132,40.389-28.805,52.152
			c-4.866,7.459-9.153,13.379-12.607,17.862c-6.595-20.898-18.235-61.26-20.997-93.742c-0.39-4.584-4.411-7.976-9.005-7.595
			c-4.584,0.39-7.983,4.422-7.595,9.005c3.787,44.546,22.692,100.86,26.02,110.511v10.894h-7.775c-4.6,0-8.33,3.73-8.33,8.33
			c0,4.6,3.73,8.33,8.33,8.33h7.775v28.322c0,4.6,3.73,8.33,8.33,8.33c4.6,0,8.33-3.73,8.33-8.33v-28.322h7.775
			c4.6,0,8.33-3.73,8.33-8.33c0-4.6-3.73-8.33-8.33-8.33h-7.775v-9.024c7.084-7.903,28.397-33.915,52.105-84.394
			c5.38,2.824,10.345,6.452,14.683,10.789l15.99,15.991c1.626,1.627,3.758,2.44,5.89,2.44s4.264-0.813,5.89-2.44
			c3.253-3.253,3.253-8.526,0-11.78l-15.99-15.991c-5.763-5.763-12.399-10.532-19.594-14.195c2.955-6.785,5.931-13.956,8.902-21.511
			c11.445,2.421,22.06,8.124,30.374,16.44l15.99,15.991c1.626,1.627,3.758,2.44,5.89,2.44s4.264-0.813,5.89-2.44
			c3.253-3.253,3.253-8.526,0-11.78l-15.99-15.991c-9.997-9.998-22.602-17.039-36.244-20.397
			c23.268-65.831,28.869-135.074,30.188-168.212l12.602,12.601c1.626,1.626,3.758,2.44,5.89,2.44c2.131,0,4.264-0.813,5.89-2.44
			c3.253-3.253,3.253-8.528,0-11.78l-8.069-8.069c-0.002-0.002-0.003-0.003-0.006-0.006l-18.36-18.36
			c-7.414-7.414-11.496-17.27-11.496-27.754c0-7.65,2.174-14.966,6.229-21.241l41.674,41.674c25.85,25.85,41.686,60.157,44.589,96.6
			l1.207,15.153c1.392,17.469,8.983,33.915,21.375,46.305c1.626,1.627,3.758,2.44,5.89,2.44s4.264-0.813,5.89-2.44
			C441.312,266.493,441.312,261.218,438.059,257.965z M99.052,63.273c2.593-2.594,6.043-4.024,9.713-4.024
			c3.67,0,7.119,1.429,9.714,4.024l5.351,5.351c-4.379,1.437-8.495,3.885-11.972,7.36c-3.451,3.451-5.962,7.588-7.422,12.101
			l-5.386-5.386c-2.594-2.594-4.024-6.044-4.024-9.714S96.457,65.866,99.052,63.273z M92.176,138.239
			c-5.357-5.357-5.357-14.071,0-19.428c5.356-5.356,14.07-5.356,19.428,0l0.001,0.001c0.242,0.242,0.499,0.461,0.761,0.666
			l11.93,11.93c-4.406,1.434-8.549,3.89-12.044,7.384c-3.451,3.451-5.961,7.587-7.422,12.099L92.176,138.239z M277.885,309.999
			c-11.404-2.433-21.98-8.128-30.27-16.418l-53.328-53.328c-3.252-3.253-8.526-3.253-11.78,0s-3.253,8.526,0,11.78l53.328,53.328
			c9.947,9.948,22.475,16.964,36.036,20.343c-2.583,6.46-5.165,12.611-7.721,18.449c-3.741-0.974-7.556-1.689-11.426-2.094
			c-13.785-1.439-26.773-7.63-36.574-17.431L92.568,201.045c-2.594-2.594-4.024-6.044-4.024-9.714s1.429-7.119,4.024-9.714
			c2.593-2.594,6.043-4.024,9.713-4.024s7.119,1.429,9.714,4.024l0.002,0.002c0.241,0.242,0.498,0.46,0.76,0.665l48.094,48.094
			c1.626,1.626,3.758,2.44,5.89,2.44s4.264-0.813,5.89-2.44c3.253-3.253,3.253-8.528,0-11.78l-48.6-48.6
			c-2.594-2.594-4.024-6.044-4.024-9.714c0-3.67,1.429-7.119,4.024-9.714c5.357-5.356,14.072-5.354,19.428,0
			c0.001,0.001,0.002,0.002,0.003,0.003l68.29,68.29c1.626,1.627,3.758,2.44,5.89,2.44c2.131,0,4.264-0.813,5.89-2.44
			c3.253-3.253,3.253-8.528,0-11.78l-99.892-99.893c-2.594-2.593-4.024-6.043-4.024-9.713c0-3.67,1.429-7.119,4.024-9.714
			c5.356-5.356,14.071-5.357,19.428,0l93.362,93.362c1.626,1.626,3.758,2.44,5.89,2.44s4.264-0.813,5.89-2.44
			c3.253-3.253,3.253-8.528,0-11.78L130.514,51.653c-2.594-2.594-4.024-6.044-4.024-9.714c0-3.67,1.429-7.119,4.024-9.714
			c5.357-5.356,14.072-5.354,19.428,0l122.774,122.773c3.253,3.253,8.528,3.253,11.78,0c3.253-3.253,3.253-8.528,0-11.78
			L181.372,40.096c-5.356-5.356-5.356-14.071,0-19.428c5.357-5.354,14.071-5.356,19.428,0l107.673,107.673
			C308.311,146.144,306.02,232.138,277.885,309.999z"/>
	</g>
</g>
</svg>