<?xml version="1.0" encoding="iso-8859-1"?>
<!-- Uploaded to: SVG Repo, www.svgrepo.com, Generator: SVG Repo Mixer Tools -->
<svg height="800px" width="800px" version="1.1" id="Layer_1" xmlns="http://www.w3.org/2000/svg" xmlns:xlink="http://www.w3.org/1999/xlink" 
	 viewBox="0 0 512 512" xml:space="preserve">
<path style="fill:#F95428;" d="M212.942,441.444c-3.129,0-6.12-1.791-7.501-4.825c-0.445-0.976-11.001-24.28-20.607-56.767
	c-12.999-43.963-17.672-81.839-13.889-112.573c0.556-4.515,4.666-7.723,9.182-7.17c4.515,0.556,7.726,4.667,7.17,9.182
	c-8.405,68.294,32.721,159.584,33.136,160.499c1.886,4.141,0.058,9.025-4.081,10.911
	C215.245,441.205,214.084,441.444,212.942,441.444z"/>
<path style="fill:#E2C7A3;" d="M285.025,145.988c-18.375-18.375-30.424-27.531-12.05-45.906l59.705,27.015
	c26.975,26.975,43.449,62.67,46.481,100.693l1.197,14.992c1.219,15.332,7.864,29.731,18.748,40.616l-90.249,90.248l-15.816-15.816
	c-11.049-11.06-25.58-17.979-41.132-19.605c-7.776-0.813-15.289-2.954-22.252-6.26c-6.952-3.317-13.355-7.809-18.88-13.345
	l-38.166-38.166l-84.043-84.043c-8.523-8.523-8.523-22.34,0-30.863c4.261-4.261,9.841-6.392,15.431-6.392
	c5.579,0,11.17,2.131,15.42,6.392l-31.247-31.247c-8.523-8.523-8.523-22.34,0-30.863c4.261-4.261,9.841-6.392,15.431-6.392
	c5.59,0,11.17,2.131,15.431,6.392L94.972,79.375c-8.523-8.523-8.523-22.34,0-30.863c4.261-4.25,9.852-6.381,15.431-6.381
	s11.17,2.131,15.431,6.381l19.264,19.264c-8.347-8.534-8.292-22.219,0.165-30.687c4.261-4.261,9.841-6.392,15.431-6.392
	c5.59,0,11.17,2.131,15.431,6.392L285.025,145.988z"/>
<path style="fill:#FCE2B9;" d="M430.218,252.7l-90.248,90.248l-15.816-15.816c-9.039-9.05-20.418-15.332-32.774-18.199
	c-2.746-0.637-5.536-1.109-8.358-1.406c-2.834-0.297-5.634-0.769-8.391-1.406c-4.789-1.12-9.435-2.757-13.861-4.855
	c-6.952-3.317-13.355-7.809-18.88-13.345L119.681,165.714c-8.523-8.523-8.523-22.34,0-30.863c4.261-4.261,9.841-6.392,15.431-6.392
	c5.579,0,11.17,2.131,15.42,6.392l-31.247-31.247c-8.523-8.523-8.523-22.34,0-30.863c2.79-2.79,6.14-4.668,9.687-5.623
	c1.878-0.516,3.811-0.769,5.744-0.769c5.59,0,11.17,2.131,15.431,6.392l-24.064-24.064c-8.523-8.523-8.523-22.34,0-30.863
	c4.261-4.25,9.852-6.381,15.431-6.381s11.17,2.131,15.431,6.381l19.264,19.264c-6.601-6.744-7.941-16.705-4.042-24.767
	c1.032-2.142,2.427-4.141,4.207-5.92C180.638,2.131,186.217,0,191.807,0c5.59,0,11.17,2.131,15.431,6.392L316.137,115.29
	c-4.734-4.734-8.248-10.225-10.533-16.079c-2.197-5.579-3.273-11.488-3.251-17.408c0-0.977,0.033-1.955,0.11-2.922
	c0.725-10.983,5.283-21.747,13.674-30.138l47.656,47.656c26.975,26.975,43.449,62.67,46.481,100.693l1.197,14.992
	C412.689,227.417,419.334,241.816,430.218,252.7z"/>
<path style="fill:#F95428;" d="M291.381,308.934c-0.264,0.648-0.538,1.285-0.824,1.922
	c-38.946,88.118-69.974,126.032-71.281,127.602c-1.626,1.966-3.976,2.987-6.337,2.987c-1.856,0-3.723-0.626-5.261-1.9
	c-3.504-2.9-3.987-8.095-1.087-11.598c10.478-12.686,38.057-54.367,68.041-121.825c0.286-0.637,0.571-1.274,0.857-1.922
	c22.054-49.907,22.999-110.446,19.89-152.446c-2.087-28.337-6.227-52.192-9.105-66.327l0,0c6.669-0.024,12.739,3.842,15.539,9.895
	l4.857,10.501c1.977,12.664,3.899,27.875,5.14,44.723C315.005,193.885,314.017,256.314,291.381,308.934z"/>
<g>
	<path style="fill:#EDD2AB;" d="M246.042,106.91l-69.831-69.831c-6.601-6.744-7.941-16.705-4.042-24.767L246.042,106.91z"/>
	<path style="fill:#EDD2AB;" d="M215.729,138.322l-86.756-71.204c1.878-0.516,3.811-0.769,5.744-0.769
		c5.59,0,11.17,2.131,15.431,6.392L215.729,138.322z"/>
	<path style="fill:#EDD2AB;" d="M216.113,200.431l-86.756-71.204c1.878-0.516,3.811-0.769,5.744-0.769
		c5.59,0,11.17,2.131,15.431,6.392L216.113,200.431z"/>
</g>
<polygon style="fill:#E09B2D;" points="237.101,459.281 221.175,459.281 221.175,438.879 204.7,438.879 204.7,459.281 
	188.775,459.281 188.775,475.756 204.7,475.756 204.7,512 221.175,512 221.175,475.756 237.101,475.756 "/>
<path style="fill:#EDD2AB;" d="M338.96,138.102l-22.823-22.812c-4.734-4.734-8.248-10.225-10.533-16.079
	c-2.197-5.579-3.273-11.488-3.251-17.408c0-0.977,0.033-1.955,0.11-2.922L338.96,138.102z"/>
</svg>