<?xml version="1.0" encoding="iso-8859-1"?>
<!-- Uploaded to: SVG Repo, www.svgrepo.com, Generator: SVG Repo Mixer Tools -->
<svg height="800px" width="800px" version="1.1" id="Capa_1" xmlns="http://www.w3.org/2000/svg" xmlns:xlink="http://www.w3.org/1999/xlink" 
	 viewBox="0 0 512 512" xml:space="preserve">
<path style="fill:#CCF7F5;" d="M84.976,268.676c-40.125,0-72.77-32.644-72.77-72.771c0-11.702,2.84-23.271,8.234-33.614
	c0.331-0.787,0.714-1.557,1.148-2.308l45.069-78.065c3.745-6.487,10.667-10.484,18.157-10.484l0,0
	c7.491,0,14.413,3.996,18.159,10.484l42.286,73.246c8.169,12.069,12.482,26.133,12.482,40.74
	C157.744,236.03,125.1,268.676,84.976,268.676z"/>
<path style="fill:#74D6D0;" d="M145.262,155.166L102.974,81.92c-3.746-6.487-10.667-10.484-18.159-10.484
	c-0.302,0-0.602,0.017-0.902,0.029v197.184c0.355,0.006,0.706,0.027,1.062,0.027c40.124,0,72.768-32.644,72.768-72.771
	C157.744,181.299,153.431,167.235,145.262,155.166z"/>
<path style="fill:#CCF7F5;" d="M413.994,236.311c-47.311,0-85.803-38.49-85.803-85.801c0-13.875,3.387-27.588,9.814-39.835
	c0.348-0.848,0.755-1.679,1.222-2.487l56.408-97.705C399.38,3.996,406.303,0,413.792,0l0,0c7.491,0,14.413,3.996,18.157,10.484
	l53.02,91.838c9.699,14.259,14.821,30.898,14.821,48.188C499.792,197.821,461.304,236.311,413.994,236.311z"/>
<g>
	<path style="fill:#74D6D0;" d="M484.97,102.322l-53.019-91.838C428.207,3.996,421.285,0,413.794,0
		c-0.045,0-0.088,0.004-0.131,0.004v236.297c0.112,0,0.221,0.008,0.333,0.008c47.31,0,85.799-38.49,85.799-85.801
		C499.792,133.222,494.671,116.581,484.97,102.322z"/>
	<path style="fill:#74D6D0;" d="M252.909,512c-62.019,0-112.474-50.458-112.474-112.477c0-18.315,4.5-36.414,13.04-52.548
		c0.383-0.983,0.843-1.944,1.38-2.874l79.615-137.899c3.745-6.487,10.667-10.484,18.157-10.484c7.491,0,14.413,3.996,18.157,10.484
		l74.996,129.902c12.826,18.746,19.599,40.654,19.599,63.418C365.381,461.542,314.926,512,252.909,512z"/>
</g>
<path style="fill:#CCF7F5;" d="M252.909,512c-62.019,0-112.474-50.458-112.474-112.477c0-18.315,4.5-36.414,13.04-52.548
	c0.383-0.983,0.843-1.944,1.38-2.874l79.615-137.899c3.745-6.487,10.667-10.484,18.157-10.484L252.909,512z"/>
</svg>