<?xml version='1.0' encoding='iso-8859-1'?>
<!-- Uploaded to: SVG Repo, www.svgrepo.com, Generator: SVG Repo Mixer Tools -->
<svg fill="#000000" height="800px" width="800px" version="1.1" xmlns="http://www.w3.org/2000/svg" viewBox="0 0 470 470" xmlns:xlink="http://www.w3.org/1999/xlink" enable-background="new 0 0 470 470">
  <g>
    <g>
      <path d="m255.179,194.635c-2.215,10.335 0.014,21.166 6.335,29.865 12.154,16.729 35.652,20.449 52.38,8.296 0.978-0.711 1.908-1.481 2.812-2.28 7.553,2.887 15.739,4.484 24.294,4.484s16.741-1.597 24.294-4.484c0.903,0.799 1.834,1.569 2.812,2.28 6.642,4.826 14.35,7.148 21.992,7.148 11.606,0 23.06-5.358 30.388-15.445 6.321-8.699 8.55-19.529 6.335-29.865 7.867-7.06 12.429-17.131 12.429-27.885s-4.563-20.825-12.429-27.885c2.215-10.335-0.014-21.166-6.335-29.865-6.32-8.699-15.932-14.166-26.446-15.253-4.283-9.664-12.452-17.115-22.679-20.438-10.227-3.323-21.216-2.095-30.361,3.204-9.146-5.3-20.136-6.527-30.361-3.204-10.227,3.323-18.396,10.775-22.679,20.438-10.513,1.088-20.126,6.555-26.446,15.253-6.32,8.7-8.549,19.53-6.334,29.865-7.867,7.06-12.429,17.131-12.429,27.885s4.561,20.826 12.428,27.886zm32.571-27.885c0-15.609 6.895-30.301 18.49-40.318 8.764,27.939 34.961,47.818 65.135,47.818 7.775,0 15.48-1.331 22.754-3.899-1.857,27.69-24.977,49.649-53.129,49.649-29.362,0-53.25-23.888-53.25-53.25zm-19.831-18.816c2.934-1.928 4.138-5.634 2.897-8.918-2.692-7.127-1.633-15.053 2.833-21.2 4.466-6.146 11.672-9.601 19.287-9.245 3.52,0.174 6.659-2.126 7.586-5.512 2.012-7.348 7.526-13.137 14.752-15.485s15.09-0.906 21.038,3.857c2.74,2.194 6.637,2.194 9.377,0 5.947-4.762 13.812-6.204 21.037-3.857 7.226,2.348 12.741,8.137 14.752,15.485 0.927,3.387 4.085,5.685 7.586,5.512 7.606-0.358 14.821,3.099 19.287,9.245 4.466,6.147 5.525,14.072 2.833,21.2-1.241,3.284-0.037,6.99 2.897,8.918 6.368,4.184 10.169,11.218 10.169,18.816s-3.801,14.632-10.169,18.816c-2.934,1.928-4.138,5.634-2.897,8.918 2.692,7.127 1.633,15.052-2.833,21.199-6.539,8.999-18.54,11.7-28.188,6.912 17.572-12.36 29.087-32.777 29.087-55.845 0-2.838-0.196-5.797-0.582-8.793-0.319-2.476-1.849-4.631-4.082-5.749-2.232-1.117-4.874-1.05-7.048,0.179-7.941,4.49-16.988,6.863-26.164,6.863-26.692,0-49.394-19.928-52.807-46.353-0.319-2.477-1.851-4.631-4.083-5.748-2.233-1.117-4.876-1.05-7.048,0.181-21.395,12.109-34.686,34.877-34.686,59.42 0,23.068 11.515,43.485 29.087,55.845-9.648,4.788-21.649,2.088-28.188-6.912-4.465-6.147-5.524-14.072-2.833-21.199 1.241-3.284 0.037-6.99-2.897-8.918-6.368-4.184-10.169-11.218-10.169-18.816s3.801-14.632 10.169-18.816z"/>
      <path d="m426.776,297.74c-0.324-0.345-0.672-0.655-1.042-0.925-22.682-19.802-52.33-31.815-84.734-31.815-34.909,0-67.607,13.729-92.07,38.657-2.901,2.956-2.856,7.705 0.1,10.606 2.957,2.902 7.705,2.857 10.606-0.1 0.432-0.44 0.871-0.869 1.308-1.301 22.743,18.027 50.911,27.888 80.056,27.888 29.131,0 57.284-9.852 80.021-27.861 20.963,20.685 33.979,49.405 33.979,81.111 0,4.142 3.358,7.5 7.5,7.5s7.5-3.358 7.5-7.5c0-38.227-16.72-72.618-43.224-96.26zm-85.776,28.01c-24.8,0-48.799-8.082-68.49-22.906 19.635-14.829 43.417-22.844 68.49-22.844 25.659,0 49.363,8.524 68.435,22.885-19.68,14.798-43.658,22.865-68.435,22.865z"/>
      <path d="m192.587,152.208c-2.231-1.117-4.875-1.05-7.048,0.179-7.941,4.49-16.988,6.863-26.164,6.863-26.692,0-49.394-19.928-52.807-46.353-0.319-2.477-1.851-4.631-4.083-5.748-2.233-1.117-4.876-1.05-7.048,0.181-21.395,12.109-34.686,34.877-34.686,59.42-0.001,37.633 30.616,68.25 68.249,68.25s68.25-30.617 68.25-68.25c0-2.838-0.196-5.797-0.582-8.793-0.318-2.476-1.849-4.631-4.081-5.749zm-63.587,67.792c-29.362,0-53.25-23.888-53.25-53.25 0-15.609 6.895-30.301 18.49-40.318 8.764,27.939 34.961,47.818 65.135,47.818 7.775,0 15.48-1.331 22.754-3.899-1.857,27.69-24.977,49.649-53.129,49.649z"/>
      <path d="m38.25,280.262c4.142,0 7.5-3.358 7.5-7.5v-106.012c0-45.904 37.346-83.25 83.25-83.25s83.25,37.346 83.25,83.25v106.012c0,4.142 3.358,7.5 7.5,7.5s7.5-3.358 7.5-7.5v-106.012c0-54.175-44.075-98.25-98.25-98.25s-98.25,44.075-98.25,98.25v106.012c0,4.142 3.358,7.5 7.5,7.5z"/>
      <path d="M214.777,297.74c-0.325-0.345-0.672-0.655-1.042-0.925C191.052,277.013,161.404,265,129,265s-62.053,12.013-84.735,31.815    c-0.37,0.27-0.717,0.58-1.041,0.924C16.72,321.382,0,355.773,0,394c0,4.142,3.358,7.5,7.5,7.5s7.5-3.358,7.5-7.5    c0-31.706,13.016-60.426,33.979-81.111C71.716,330.898,99.869,340.75,129,340.75s57.284-9.852,80.021-27.861    C229.984,333.574,243,362.294,243,394c0,4.142,3.358,7.5,7.5,7.5s7.5-3.358,7.5-7.5C258,355.773,241.28,321.383,214.777,297.74z     M129,325.75c-24.777,0-48.755-8.067-68.435-22.865C79.637,288.524,103.341,280,129,280s49.363,8.524,68.435,22.885    C177.755,317.683,153.777,325.75,129,325.75z"/>
    </g>
  </g>
</svg>